<?xml version="1.0" encoding="utf-8"?>
<!-- Generator: Adobe Illustrator 27.5.0, SVG Export Plug-In . SVG Version: 6.00 Build 0)  -->
<svg version="1.1" id="BACKGROUND" xmlns="http://www.w3.org/2000/svg" xmlns:xlink="http://www.w3.org/1999/xlink" x="0px" y="0px"
	 viewBox="0 0 750 500" style="enable-background:new 0 0 750 500;" xml:space="preserve">
<g>
	<defs>
		<rect id="SVGID_1_" width="750" height="500"/>
	</defs>
	<clipPath id="SVGID_00000075851197156441059640000005901068137873369218_">
		<use xlink:href="#SVGID_1_"  style="overflow:visible;"/>
	</clipPath>
	<g style="clip-path:url(#SVGID_00000075851197156441059640000005901068137873369218_);">
		<g>
			<rect style="fill:#171057;" width="750" height="500"/>
			<g style="opacity:0.62;">
				
					<linearGradient id="SVGID_00000026153827444648092880000011482853766110564520_" gradientUnits="userSpaceOnUse" x1="1.9754" y1="-185.5674" x2="521.6884" y2="421.2828">
					<stop  offset="0" style="stop-color:#FF1E78"/>
					<stop  offset="0.115" style="stop-color:#F21E7D;stop-opacity:0.885"/>
					<stop  offset="0.326" style="stop-color:#D11E89;stop-opacity:0.674"/>
					<stop  offset="0.6094" style="stop-color:#9B1D9D;stop-opacity:0.3906"/>
					<stop  offset="0.9513" style="stop-color:#511CB8;stop-opacity:0.0487"/>
					<stop  offset="1" style="stop-color:#461CBC;stop-opacity:0"/>
				</linearGradient>
				<path style="fill:url(#SVGID_00000026153827444648092880000011482853766110564520_);" d="M0,500h281.687
					c3.151-59.271,15.77-116.804,43.873-171.699C398.422,185.98,556.322,109.425,709.402,63.264
					C722.87,59.203,736.412,55.29,750,51.469V0H0V500z"/>
			</g>
			<g>
				
					<linearGradient id="SVGID_00000007415498916980356300000006376644449152813738_" gradientUnits="userSpaceOnUse" x1="271.0957" y1="136.644" x2="23.823" y2="459.5292">
					<stop  offset="0" style="stop-color:#FF1E78"/>
					<stop  offset="1" style="stop-color:#461CBC;stop-opacity:0"/>
				</linearGradient>
				<path style="fill:url(#SVGID_00000007415498916980356300000006376644449152813738_);" d="M291.81,443.092
					c-28.079-10.15-61.655-8.964-83.692-29.108c-20.622-18.85-23.719-49.757-36.471-74.616
					c-22.304-43.482-74.012-67.831-90.762-113.739c-14.635-40.112,1.718-84.093,16.163-124.274
					C106.58,74.84,115.104,45.497,113.63,18H0v482h354.785C340.601,474.095,319.766,453.197,291.81,443.092z"/>
			</g>
			<g>
				
					<linearGradient id="SVGID_00000141439130947156089130000007479123424923435652_" gradientUnits="userSpaceOnUse" x1="185.4126" y1="322.1487" x2="-116.5868" y2="756.1481">
					<stop  offset="0" style="stop-color:#FF1E78"/>
					<stop  offset="0.4468" style="stop-color:#3134F4"/>
					<stop  offset="0.4795" style="stop-color:#3233F1;stop-opacity:0.9409"/>
					<stop  offset="1" style="stop-color:#461CBC;stop-opacity:0"/>
				</linearGradient>
				<path style="fill:url(#SVGID_00000141439130947156089130000007479123424923435652_);" d="M241.662,469.616
					c-30.913-5.574-62.611,1.816-94.015,1.097c-24.934-0.571-54.53-10.92-59.297-35.401c-3.4-17.462,7.549-34.02,13.955-50.616
					c13.552-35.107,5.804-77.513-19.286-105.56C62.389,256.073,30.808,243.599,0,245.212V500h300.603
					C284.454,484.45,263.742,473.598,241.662,469.616z"/>
			</g>
			<g>
				
					<linearGradient id="SVGID_00000153672460885152630590000001457373619508337287_" gradientUnits="userSpaceOnUse" x1="535.9606" y1="323.3773" x2="750" y2="323.3773">
					<stop  offset="0" style="stop-color:#FF1E78"/>
					<stop  offset="1" style="stop-color:#461CBC;stop-opacity:0"/>
				</linearGradient>
				<path style="fill:url(#SVGID_00000153672460885152630590000001457373619508337287_);" d="M750,500V146.755
					c-5.415,15.552-11.689,30.821-18.836,45.719c-15.969,33.288-36.261,65.212-64.442,89.065
					c-35.23,29.819-82.736,47.31-106.34,86.974c-18.925,31.802-18.199,70.97-21.337,107.843c-0.663,7.791-1.651,15.75-3.085,23.644
					H750z"/>
			</g>
			<g>
				
					<linearGradient id="SVGID_00000060741154529571850820000015185614876897830811_" gradientUnits="userSpaceOnUse" x1="671.8277" y1="193.6415" x2="830.5223" y2="-215.4385">
					<stop  offset="0" style="stop-color:#FF1E78"/>
					<stop  offset="0.039" style="stop-color:#E72186"/>
					<stop  offset="0.1384" style="stop-color:#B026A7"/>
					<stop  offset="0.2352" style="stop-color:#832BC3"/>
					<stop  offset="0.3272" style="stop-color:#5F2FD8"/>
					<stop  offset="0.4134" style="stop-color:#4632E8"/>
					<stop  offset="0.4912" style="stop-color:#3633F1"/>
					<stop  offset="0.5536" style="stop-color:#3134F4"/>
					<stop  offset="0.58" style="stop-color:#3233F1;stop-opacity:0.9409"/>
					<stop  offset="1" style="stop-color:#461CBC;stop-opacity:0"/>
				</linearGradient>
				<path style="fill:url(#SVGID_00000060741154529571850820000015185614876897830811_);" d="M607.865,29.054
					c2.129,32.206-16.093,61.924-23.027,93.447c-8.112,36.882,2.464,80.484,34.482,100.507
					c25.38,15.872,58.324,14.138,85.028,27.662c26.51,13.426,44.398,42.377,44.544,72.092c0.08,16.188-4.452,33.476,1.108,48.246V0
					H599.969C604.381,8.996,607.182,18.721,607.865,29.054z"/>
			</g>
			<g>
				
					<linearGradient id="SVGID_00000109031642729975090170000002478412156144720528_" gradientUnits="userSpaceOnUse" x1="581.7283" y1="512.8727" x2="591.5023" y2="415.1325">
					<stop  offset="0" style="stop-color:#451ECC"/>
					<stop  offset="0.1337" style="stop-color:#3C30D3"/>
					<stop  offset="1" style="stop-color:#00A1FF"/>
				</linearGradient>
				<path style="fill:url(#SVGID_00000109031642729975090170000002478412156144720528_);" d="M502.226,432.171
					c-32.78,7.925-50.316,42.721-73.495,67.829h308.571c-9.117-10.667-22.861-18.742-36.597-21.896
					c-26.859-6.166-55.427-1.452-82.076-8.473C578.45,459.046,542.611,422.407,502.226,432.171z"/>
			</g>
			<g style="opacity:0.62;">
				
					<linearGradient id="SVGID_00000105405521160612755970000003569037361991213701_" gradientUnits="userSpaceOnUse" x1="264.813" y1="243.9695" x2="848.8714" y2="243.9695">
					<stop  offset="0" style="stop-color:#FF1E78"/>
					<stop  offset="0.115" style="stop-color:#F21E7D;stop-opacity:0.885"/>
					<stop  offset="0.326" style="stop-color:#D11E89;stop-opacity:0.674"/>
					<stop  offset="0.6094" style="stop-color:#9B1D9D;stop-opacity:0.3906"/>
					<stop  offset="0.9513" style="stop-color:#511CB8;stop-opacity:0.0487"/>
					<stop  offset="1" style="stop-color:#461CBC;stop-opacity:0"/>
				</linearGradient>
				<path style="fill:url(#SVGID_00000105405521160612755970000003569037361991213701_);" d="M750,0H350.351
					c0.956,3.392,1.774,6.824,2.425,10.293c7.494,39.897-5.87,83.127-34.573,111.835c-11.536,11.538-25.355,20.865-35.336,33.771
					c-10.71,13.848-16.369,31.198-17.74,48.65c-3.546,45.133,23.234,91.13,64.235,110.327s93.479,10.308,125.872-21.319
					c10.824-10.568,19.594-23.396,32.008-32.041c32.23-22.447,79.013-8.633,106.668,19.257
					c27.655,27.891,41.422,66.194,56.85,102.314c15.429,36.119,35.068,73.2,69.074,92.853c9.471,5.473,19.628,9.322,30.166,11.999V0
					z"/>
			</g>
			<g>
				
					<linearGradient id="SVGID_00000081649558118541906520000016890209969447382918_" gradientUnits="userSpaceOnUse" x1="190.1485" y1="-6.4788" x2="190.1485" y2="71.596">
					<stop  offset="0" style="stop-color:#451ECC"/>
					<stop  offset="0.1337" style="stop-color:#3C30D3"/>
					<stop  offset="1" style="stop-color:#00A1FF"/>
				</linearGradient>
				<path style="fill:url(#SVGID_00000081649558118541906520000016890209969447382918_);" d="M107.2,57.18
					c35.763-11.405,68.761-33.004,106.152-36.312c24.113-2.134,48.124,3.569,72.086,7.012c23.961,3.444,49.531,4.395,71.198-6.4
					c9.537-4.752,17.926-12.426,23.66-21.48H0v59.659C35.196,68.466,72.571,68.224,107.2,57.18z"/>
			</g>
		</g>
		<g>
			<path style="opacity:0.49;fill:#FFFFFF;" d="M84-72.995c-30.376,0-55,24.624-55,55s24.624,55,55,55c30.376,0,55-24.624,55-55
				S114.376-72.995,84-72.995z M84,19.005c-20.434,0-37-16.565-37-37c0-20.435,16.566-37,37-37c20.435,0,37,16.565,37,37
				C121,2.44,104.435,19.005,84,19.005z"/>
			<path style="opacity:0.49;fill:#FFFFFF;" d="M748,156.005c-19.882,0-36,16.118-36,36s16.118,36,36,36c19.882,0,36-16.118,36-36
				S767.882,156.005,748,156.005z M748,216.223c-13.375,0-24.218-10.843-24.218-24.218s10.843-24.218,24.218-24.218
				c13.375,0,24.218,10.843,24.218,24.218S761.375,216.223,748,216.223z"/>
			<path style="opacity:0.49;fill:#FFFFFF;" d="M670,268.006c-5.523,0-10,4.477-10,10s4.477,10,10,10c5.523,0,10-4.477,10-10
				S675.523,268.006,670,268.006z M670,284.733c-3.715,0-6.727-3.012-6.727-6.727s3.012-6.727,6.727-6.727
				c3.715,0,6.727,3.012,6.727,6.727S673.715,284.733,670,284.733z"/>
			<path style="opacity:0.49;fill:#FFFFFF;" d="M98,83c-5.523,0-10,4.477-10,10s4.477,10,10,10c5.523,0,10-4.477,10-10
				S103.523,83,98,83z M98,99.727c-3.715,0-6.727-3.012-6.727-6.727s3.012-6.727,6.727-6.727c3.715,0,6.727,3.012,6.727,6.727
				S101.715,99.727,98,99.727z"/>
			<path style="opacity:0.49;fill:#FFFFFF;" d="M285.273,435.25c-7.594,0-13.75,6.156-13.75,13.75s6.156,13.75,13.75,13.75
				c7.594,0,13.75-6.156,13.75-13.75S292.867,435.25,285.273,435.25z M285.273,458.25c-5.108,0-9.25-4.141-9.25-9.25
				s4.141-9.25,9.25-9.25s9.25,4.141,9.25,9.25S290.381,458.25,285.273,458.25z"/>
			<g>
				<g>
					<circle style="fill:#FFFFFF;" cx="371.181" cy="505.857" r="1.319"/>
				</g>
				<g>
					<path style="fill:#FFFFFF;" d="M391.234,508.188c0.515-0.515,1.35-0.515,1.865,0s0.515,1.35,0,1.865
						c-0.515,0.515-1.35,0.515-1.865,0C390.718,509.539,390.718,508.703,391.234,508.188z"/>
					<circle style="fill:#FFFFFF;" cx="380.042" cy="496.996" r="1.319"/>
				</g>
				<g>
					<path style="fill:#FFFFFF;" d="M400.094,499.328c0.515-0.515,1.35-0.515,1.865,0c0.515,0.515,0.515,1.35,0,1.865
						s-1.35,0.515-1.865,0S399.579,499.843,400.094,499.328z"/>
					<circle style="fill:#FFFFFF;" cx="388.902" cy="488.136" r="1.319"/>
				</g>
				<g>
					<circle style="fill:#FFFFFF;" cx="422.012" cy="503.525" r="1.319"/>
					<circle style="fill:#FFFFFF;" cx="409.887" cy="491.4" r="1.319"/>
					<path style="fill:#FFFFFF;" d="M396.83,478.343c0.515-0.515,1.35-0.515,1.865,0c0.515,0.515,0.515,1.35,0,1.865
						c-0.515,0.515-1.35,0.515-1.865,0S396.315,478.858,396.83,478.343z"/>
				</g>
				<g>
					<circle style="fill:#FFFFFF;" cx="442.997" cy="506.789" r="1.319"/>
					<circle style="fill:#FFFFFF;" cx="430.872" cy="494.664" r="1.319"/>
					<circle style="fill:#FFFFFF;" cx="418.747" cy="482.54" r="1.319"/>
					<path style="fill:#FFFFFF;" d="M405.69,469.482c0.515-0.515,1.35-0.515,1.865,0s0.515,1.35,0,1.865
						c-0.515,0.515-1.35,0.515-1.865,0C405.175,470.833,405.175,469.997,405.69,469.482z"/>
				</g>
				<g>
					<circle style="fill:#FFFFFF;" cx="463.982" cy="510.054" r="1.319"/>
					<circle style="fill:#FFFFFF;" cx="451.857" cy="497.929" r="1.319"/>
					<circle style="fill:#FFFFFF;" cx="439.733" cy="485.804" r="1.319"/>
					<circle style="fill:#FFFFFF;" cx="427.608" cy="473.679" r="1.319"/>
					<circle style="fill:#FFFFFF;" cx="415.483" cy="461.555" r="1.319"/>
				</g>
				<g>
					<path style="fill:#FFFFFF;" d="M471.91,500.26c0.515-0.515,1.35-0.515,1.865,0s0.515,1.35,0,1.865
						c-0.515,0.515-1.35,0.515-1.865,0C471.395,501.611,471.395,500.776,471.91,500.26z"/>
					<path style="fill:#FFFFFF;" d="M459.785,488.136c0.515-0.515,1.35-0.515,1.865,0c0.515,0.515,0.515,1.35,0,1.865
						c-0.515,0.515-1.35,0.515-1.865,0C459.27,489.486,459.27,488.651,459.785,488.136z"/>
					<circle style="fill:#FFFFFF;" cx="448.593" cy="476.944" r="1.319"/>
					<circle style="fill:#FFFFFF;" cx="436.468" cy="464.819" r="1.319"/>
					<circle style="fill:#FFFFFF;" cx="424.343" cy="452.694" r="1.319"/>
				</g>
				<g>
					<circle style="fill:#FFFFFF;" cx="495.036" cy="503.249" r="1.319"/>
					<path style="fill:#FFFFFF;" d="M481.979,490.191c0.515-0.515,1.35-0.515,1.865,0s0.515,1.35,0,1.865
						c-0.515,0.515-1.35,0.515-1.865,0C481.464,491.542,481.464,490.706,481.979,490.191z"/>
					<circle style="fill:#FFFFFF;" cx="470.787" cy="478.999" r="1.319"/>
					<circle style="fill:#FFFFFF;" cx="458.662" cy="466.874" r="1.319"/>
					<circle style="fill:#FFFFFF;" cx="446.537" cy="454.75" r="1.319"/>
					<circle style="fill:#FFFFFF;" cx="434.413" cy="442.625" r="1.319"/>
				</g>
			</g>
			<g>
				<circle style="fill:#FFFFFF;" cx="450" cy="55" r="2.667"/>
				<path style="fill:#FFFFFF;" d="M487.333,55c0,1.473-1.194,2.667-2.667,2.667c-1.473,0-2.667-1.194-2.667-2.667
					s1.194-2.667,2.667-2.667C486.139,52.333,487.333,53.527,487.333,55z"/>
				<path style="fill:#FFFFFF;" d="M522,55c0,1.473-1.194,2.667-2.667,2.667c-1.473,0-2.667-1.194-2.667-2.667
					s1.194-2.667,2.667-2.667C520.806,52.333,522,53.527,522,55z"/>
				<circle style="fill:#FFFFFF;" cx="554" cy="55" r="2.667"/>
				<path style="fill:#FFFFFF;" d="M591.333,55c0,1.473-1.194,2.667-2.667,2.667c-1.473,0-2.667-1.194-2.667-2.667
					s1.194-2.667,2.667-2.667C590.139,52.333,591.333,53.527,591.333,55z"/>
				<path style="fill:#FFFFFF;" d="M626,55c0,1.473-1.194,2.667-2.667,2.667c-1.473,0-2.667-1.194-2.667-2.667
					s1.194-2.667,2.667-2.667C624.806,52.333,626,53.527,626,55z"/>
				<circle style="fill:#FFFFFF;" cx="658" cy="55" r="2.667"/>
				<path style="fill:#FFFFFF;" d="M695.333,55c0,1.473-1.194,2.667-2.667,2.667c-1.473,0-2.667-1.194-2.667-2.667
					s1.194-2.667,2.667-2.667C694.139,52.333,695.333,53.527,695.333,55z"/>
			</g>
			<g>
				<path style="fill:#FFFFFF;" d="M56,411c0,1.473-1.194,2.667-2.667,2.667c-1.473,0-2.667-1.194-2.667-2.667
					s1.194-2.667,2.667-2.667C54.806,408.333,56,409.527,56,411z"/>
				<circle style="fill:#FFFFFF;" cx="88" cy="411" r="2.667"/>
				<path style="fill:#FFFFFF;" d="M125.333,411c0,1.473-1.194,2.667-2.667,2.667c-1.473,0-2.667-1.194-2.667-2.667
					s1.194-2.667,2.667-2.667C124.139,408.333,125.333,409.527,125.333,411z"/>
				<path style="fill:#FFFFFF;" d="M160,411c0,1.473-1.194,2.667-2.667,2.667c-1.473,0-2.667-1.194-2.667-2.667
					s1.194-2.667,2.667-2.667C158.806,408.333,160,409.527,160,411z"/>
				<circle style="fill:#FFFFFF;" cx="192" cy="411" r="2.667"/>
				<path style="fill:#FFFFFF;" d="M229.333,411c0,1.473-1.194,2.667-2.667,2.667c-1.473,0-2.667-1.194-2.667-2.667
					s1.194-2.667,2.667-2.667C228.139,408.333,229.333,409.527,229.333,411z"/>
				<path style="fill:#FFFFFF;" d="M264,411c0,1.473-1.194,2.667-2.667,2.667c-1.473,0-2.667-1.194-2.667-2.667
					s1.194-2.667,2.667-2.667C262.806,408.333,264,409.527,264,411z"/>
				<circle style="fill:#FFFFFF;" cx="296" cy="411" r="2.667"/>
			</g>
			<g style="opacity:0.49;">
				<path style="fill:#FFFFFF;" d="M636.584,452.322c-0.095,0.225-0.188,0.451-0.28,0.678c-0.763,1.874-0.309,4.027,1.128,5.452
					l118.642,117.648c1.437,1.425,3.593,1.861,5.461,1.083c0.226-0.094,0.451-0.19,0.675-0.286L636.584,452.322z"/>
				<path style="fill:#FFFFFF;" d="M642.626,440.366l-0.02,0.033c-1.152,1.933-0.84,4.402,0.758,5.987L768.09,570.067
					c1.598,1.585,4.07,1.876,5.992,0.708l0.033-0.021L642.626,440.366z"/>
				<path style="fill:#FFFFFF;" d="M650.003,429.733c-0.786,0.986-1.563,1.98-2.31,2.997l134.015,132.893
					c1.011-0.756,1.998-1.541,2.978-2.336L650.003,429.733z"/>
				<path style="fill:#FFFFFF;" d="M629.555,481.247c-0.076,0.926-0.138,1.856-0.188,2.791c-0.074,1.413,0.481,2.788,1.486,3.784
					l95.906,95.103c1.005,0.996,2.384,1.54,3.797,1.454c0.933-0.057,1.863-0.127,2.789-0.211L629.555,481.247z"/>
				<path style="fill:#FFFFFF;" d="M635.344,522.882c1.119,2.964,2.391,5.852,3.791,8.665c0.252,0.506,0.588,0.966,0.99,1.364
					l41.468,41.121c0.402,0.399,0.864,0.731,1.373,0.979c2.825,1.376,5.723,2.623,8.697,3.718L635.344,522.882z"/>
				<path style="fill:#FFFFFF;" d="M632.088,465.811c-0.133,0.529-0.261,1.059-0.385,1.592c-0.392,1.688,0.156,3.468,1.386,4.688
					l109.382,108.466c1.231,1.22,3.014,1.753,4.7,1.346c0.531-0.128,1.061-0.261,1.589-0.399L632.088,465.811z"/>
				<path style="fill:#FFFFFF;" d="M629.748,499.385c0.163,1.53,0.374,3.044,0.615,4.549c0.168,1.053,0.677,2.021,1.434,2.771
					l76.072,75.436c0.757,0.75,1.729,1.251,2.783,1.411c1.507,0.228,3.023,0.426,4.554,0.576L629.748,499.385z"/>
				<path style="fill:#FFFFFF;" d="M668.41,412.092c-1.021,0.746-2.024,1.514-3.014,2.299l134.501,133.375
					c0.777-0.997,1.536-2.006,2.273-3.033L668.41,412.092z"/>
				<path style="fill:#FFFFFF;" d="M743.174,396.493c-0.739-0.733-1.682-1.231-2.708-1.402c-1.557-0.259-3.127-0.48-4.708-0.664
					l83.511,82.812c-0.198-1.58-0.432-3.147-0.704-4.702c-0.18-1.025-0.686-1.964-1.425-2.696L743.174,396.493z"/>
				<path style="fill:#FFFFFF;" d="M770.729,405.869c-0.361-0.358-0.771-0.665-1.22-0.904c-3.052-1.629-6.207-3.087-9.445-4.384
					l52.847,52.404c-1.324-3.227-2.809-6.369-4.463-9.408c-0.243-0.447-0.553-0.854-0.915-1.212L770.729,405.869z"/>
				<path style="fill:#FFFFFF;" d="M723.917,395.344c-0.987-0.978-2.336-1.521-3.724-1.458c-0.971,0.044-1.938,0.103-2.901,0.176
					l102.496,101.638c0.065-0.964,0.115-1.931,0.152-2.902c0.052-1.389-0.503-2.733-1.489-3.712L723.917,395.344z"/>
				<path style="fill:#FFFFFF;" d="M694.252,401.822c-1.414-1.402-3.536-1.873-5.38-1.123c-0.256,0.104-0.511,0.209-0.767,0.315
					l124.978,123.931c0.104-0.256,0.207-0.513,0.309-0.77c0.734-1.85,0.245-3.969-1.168-5.37L694.252,401.822z"/>
				<path style="fill:#FFFFFF;" d="M682.112,407.731c-1.587-1.573-4.035-1.877-5.958-0.739l-0.075,0.044l131.083,129.985l0,0
					c1.147-1.977,0.816-4.479-0.807-6.088L682.112,407.731z"/>
				<path style="fill:#FFFFFF;" d="M794.029,554.606L658.606,420.317c-0.904,0.867-1.793,1.747-2.662,2.648L791.403,557.29
					C792.297,556.413,793.17,555.517,794.029,554.606z"/>
				<path style="fill:#FFFFFF;" d="M708.008,397.516c-1.215-1.205-2.971-1.742-4.64-1.361c-0.557,0.127-1.112,0.259-1.665,0.396
					L817.431,511.31c0.132-0.554,0.259-1.11,0.382-1.669c0.367-1.671-0.184-3.423-1.399-4.629L708.008,397.516z"/>
			</g>
			<g>
				<g>
					<path style="fill:#F7F7F7;" d="M-34.831,146.657c0.974,0.974,0.974,2.553,0,3.526c-0.974,0.974-2.553,0.974-3.526,0
						c-0.974-0.974-0.974-2.553,0-3.526C-37.383,145.683-35.804,145.683-34.831,146.657z"/>
					<path style="fill:#F7F7F7;" d="M-25.574,137.4c0.974,0.974,0.974,2.553,0,3.526c-0.974,0.974-2.553,0.974-3.526,0
						c-0.974-0.974-0.974-2.553,0-3.526C-28.126,136.426-26.548,136.426-25.574,137.4z"/>
					<path style="fill:#F7F7F7;" d="M-16.317,128.143c0.974,0.974,0.974,2.553,0,3.526c-0.974,0.974-2.553,0.974-3.526,0
						c-0.974-0.974-0.974-2.553,0-3.526C-18.869,127.169-17.291,127.169-16.317,128.143z"/>
					<path style="fill:#F7F7F7;" d="M-7.06,118.886c0.974,0.974,0.974,2.553,0,3.526c-0.974,0.974-2.553,0.974-3.526,0
						c-0.974-0.974-0.974-2.553,0-3.526C-9.613,117.912-8.034,117.912-7.06,118.886z"/>
					<path style="fill:#F7F7F7;" d="M2.197,109.629c0.974,0.974,0.974,2.553,0,3.526s-2.553,0.974-3.526,0
						c-0.974-0.974-0.974-2.553,0-3.526C-0.356,108.656,1.223,108.656,2.197,109.629z"/>
				</g>
				<g>
					<path style="fill:#F7F7F7;" d="M-25.868,155.62c0.974,0.974,0.974,2.553,0,3.526c-0.974,0.974-2.553,0.974-3.527,0
						c-0.974-0.974-0.974-2.553,0-3.526C-28.42,154.646-26.841,154.646-25.868,155.62z"/>
					<path style="fill:#F7F7F7;" d="M-16.611,146.363c0.974,0.974,0.974,2.553,0,3.527s-2.553,0.974-3.527,0
						c-0.974-0.974-0.974-2.553,0-3.527C-19.163,145.389-17.585,145.389-16.611,146.363z"/>
					<path style="fill:#F7F7F7;" d="M-7.354,137.106c0.974,0.974,0.974,2.553,0,3.526c-0.974,0.974-2.553,0.974-3.527,0
						c-0.974-0.974-0.974-2.553,0-3.526C-9.906,136.132-8.328,136.132-7.354,137.106z"/>
					<path style="fill:#F7F7F7;" d="M1.903,127.849c0.974,0.974,0.974,2.553,0,3.526c-0.974,0.974-2.553,0.974-3.526,0
						s-0.974-2.553,0-3.526C-0.65,126.875,0.929,126.875,1.903,127.849z"/>
					<path style="fill:#F7F7F7;" d="M11.16,118.592c0.974,0.974,0.974,2.553,0,3.526c-0.974,0.974-2.553,0.974-3.526,0
						c-0.974-0.974-0.974-2.553,0-3.526C8.607,117.618,10.186,117.618,11.16,118.592z"/>
				</g>
				<g>
					<path style="fill:#F7F7F7;" d="M-16.905,164.583c0.974,0.974,0.974,2.553,0,3.527c-0.974,0.974-2.553,0.974-3.527,0
						c-0.974-0.974-0.974-2.553,0-3.527C-19.457,163.609-17.878,163.609-16.905,164.583z"/>
					<path style="fill:#F7F7F7;" d="M-7.648,155.326c0.974,0.974,0.974,2.553,0,3.527c-0.974,0.974-2.553,0.974-3.527,0
						c-0.974-0.974-0.974-2.553,0-3.527C-10.2,154.352-8.622,154.352-7.648,155.326z"/>
					<path style="fill:#F7F7F7;" d="M1.609,146.069c0.974,0.974,0.974,2.553,0,3.527c-0.974,0.974-2.553,0.974-3.526,0
						c-0.974-0.974-0.974-2.553,0-3.527C-0.943,145.095,0.635,145.095,1.609,146.069z"/>
					<path style="fill:#F7F7F7;" d="M10.866,136.812c0.974,0.974,0.974,2.553,0,3.526c-0.974,0.974-2.552,0.974-3.526,0
						c-0.974-0.974-0.974-2.553,0-3.526C8.313,135.838,9.892,135.838,10.866,136.812z"/>
					<path style="fill:#F7F7F7;" d="M20.123,127.555c0.974,0.974,0.974,2.553,0,3.526c-0.974,0.974-2.553,0.974-3.526,0
						c-0.974-0.974-0.974-2.553,0-3.526C17.57,126.581,19.149,126.581,20.123,127.555z"/>
				</g>
				<g>
					<path style="fill:#F7F7F7;" d="M-7.942,173.546c0.974,0.974,0.974,2.553,0,3.526c-0.974,0.974-2.553,0.974-3.526,0
						c-0.974-0.974-0.974-2.553,0-3.526C-10.494,172.572-8.915,172.572-7.942,173.546z"/>
					<path style="fill:#F7F7F7;" d="M1.315,164.289c0.974,0.974,0.974,2.553,0,3.526c-0.974,0.974-2.553,0.974-3.526,0
						c-0.974-0.974-0.974-2.553,0-3.526C-1.237,163.315,0.341,163.315,1.315,164.289z"/>
					<path style="fill:#F7F7F7;" d="M10.572,155.032c0.974,0.974,0.974,2.553,0,3.526c-0.974,0.974-2.553,0.974-3.526,0
						c-0.974-0.974-0.974-2.552,0-3.526C8.019,154.058,9.598,154.058,10.572,155.032z"/>
					<path style="fill:#F7F7F7;" d="M19.829,145.775c0.974,0.974,0.974,2.553,0,3.527c-0.974,0.974-2.553,0.974-3.526,0
						s-0.974-2.553,0-3.527C17.276,144.801,18.855,144.801,19.829,145.775z"/>
					<path style="fill:#F7F7F7;" d="M29.086,136.518c0.974,0.974,0.974,2.553,0,3.527c-0.974,0.974-2.553,0.974-3.526,0
						c-0.974-0.974-0.974-2.553,0-3.527C26.533,135.544,28.112,135.544,29.086,136.518z"/>
				</g>
				<g>
					<path style="fill:#F7F7F7;" d="M1.021,182.509c0.974,0.974,0.974,2.553,0,3.526c-0.974,0.974-2.553,0.974-3.526,0
						s-0.974-2.553,0-3.526C-1.531,181.535,0.048,181.535,1.021,182.509z"/>
					<path style="fill:#F7F7F7;" d="M10.278,173.252c0.974,0.974,0.974,2.553,0,3.526c-0.974,0.974-2.553,0.974-3.526,0
						c-0.974-0.974-0.974-2.553,0-3.526C7.726,172.278,9.304,172.278,10.278,173.252z"/>
					<path style="fill:#F7F7F7;" d="M19.535,163.995c0.974,0.974,0.974,2.553,0,3.526c-0.974,0.974-2.553,0.974-3.526,0
						c-0.974-0.974-0.974-2.553,0-3.526C16.982,163.021,18.561,163.021,19.535,163.995z"/>
					<path style="fill:#F7F7F7;" d="M28.792,154.738c0.974,0.974,0.974,2.553,0,3.526c-0.974,0.974-2.553,0.974-3.526,0
						c-0.974-0.974-0.974-2.553,0-3.526C26.239,153.764,27.818,153.764,28.792,154.738z"/>
					<path style="fill:#F7F7F7;" d="M38.049,145.481c0.974,0.974,0.974,2.553,0,3.526c-0.974,0.974-2.553,0.974-3.526,0
						c-0.974-0.974-0.974-2.553,0-3.526C35.496,144.508,37.075,144.508,38.049,145.481z"/>
				</g>
			</g>
		</g>
		<g>
			
				<rect x="177.779" y="47.28" transform="matrix(0.7071 -0.7071 0.7071 0.7071 17.0569 143.3777)" style="fill:#FF5E7E;" width="7.639" height="7.639"/>
			
				<rect x="189.795" y="116.39" transform="matrix(0.7071 -0.7071 0.7071 0.7071 -29.2816 174.5015)" style="fill:none;stroke:#FF5E7E;stroke-miterlimit:10;" width="12.413" height="12.413"/>
			
				<rect x="474.78" y="311.38" transform="matrix(0.7071 -0.7071 0.7071 0.7071 -83.6902 433.1279)" style="fill:none;stroke:#FF5E7E;stroke-miterlimit:10;" width="12.413" height="12.413"/>
			
				<rect x="686.779" y="330.28" transform="matrix(0.7071 -0.7071 0.7071 0.7071 -33.9702 586.1891)" style="fill:#FF5E7E;" width="7.639" height="7.639"/>
			
				<rect x="488.779" y="21.28" transform="matrix(0.7071 -0.7071 0.7071 0.7071 126.5336 355.6746)" style="fill:#FF5E7E;" width="7.639" height="7.639"/>
			
				<rect x="132.779" y="292.28" transform="matrix(0.7071 -0.7071 0.7071 0.7071 -169.3664 183.3181)" style="fill:#FF5E7E;" width="7.639" height="7.639"/>
			
				<rect x="502.779" y="400.28" transform="matrix(0.7071 -0.7071 0.7071 0.7071 -137.3617 476.5832)" style="fill:#FF5E7E;" width="7.639" height="7.639"/>
			
				<rect x="562.019" y="86.635" transform="matrix(0.7071 -0.7071 0.7071 0.7071 101.2552 427.8445)" style="fill:#FF5E7E;" width="10.123" height="10.123"/>
			
				<rect x="211.037" y="368.621" transform="matrix(0.7071 -0.7071 0.7071 0.7071 -200.9388 262.2508)" style="fill:none;stroke:#FF5E7E;stroke-miterlimit:10;" width="10.123" height="10.123"/>
			
				<rect x="716.854" y="24.54" transform="matrix(0.7071 -0.7071 0.7071 0.7071 190.5132 519.1417)" style="fill:#FF5E7E;" width="10.123" height="10.123"/>
			
				<rect x="41.287" y="177.873" transform="matrix(0.7071 -0.7071 0.7071 0.7071 -115.2642 85.1118)" style="fill:#FF5E7E;" width="7.639" height="7.639"/>
			
				<rect x="128.248" y="442.833" transform="matrix(0.7071 -0.7071 0.7071 0.7071 -276.3373 222.2468)" style="fill:#FF5E7E;" width="3.717" height="3.717"/>
			
				<rect x="27.248" y="354.833" transform="matrix(0.7071 -0.7071 0.7071 0.7071 -243.6941 125.0544)" style="fill:#FF5E7E;" width="3.717" height="3.717"/>
			
				<rect x="309.248" y="92.833" transform="matrix(0.7071 -0.7071 0.7071 0.7071 24.1637 247.7205)" style="fill:#FF5E7E;" width="3.717" height="3.717"/>
			
				<rect x="562.141" y="301.513" transform="matrix(0.7071 -0.7071 0.7071 0.7071 -49.3282 487.6503)" style="fill:#FF5E7E;" width="3.717" height="3.717"/>
			
				<rect x="590.141" y="421.77" transform="matrix(0.7071 -0.7071 0.7071 0.7071 -126.1582 542.6831)" style="fill:#FF5E7E;" width="3.717" height="3.717"/>
		</g>
	</g>
</g>
</svg>
